<svg xmlns="http://www.w3.org/2000/svg" viewBox="0 0 300 170" fill="none">
  <g transform="translate(15 29)">
    <circle cx="35" cy="30" r="20" fill="#B9D5E8" stroke="#557D8C" stroke-width="4"/><circle cx="99" cy="30" r="20" fill="#B9D5E8" stroke="#557D8C" stroke-width="4"/>
    <ellipse cx="67" cy="65" rx="55" ry="53" fill="#C8E0EC" stroke="#557D8C" stroke-width="4"/>
    <circle cx="48" cy="61" r="5" fill="#334F59"/><circle cx="86" cy="61" r="5" fill="#334F59"/>
    <ellipse cx="67" cy="77" rx="10" ry="8" fill="#385965"/><path d="M58 91c6 6 13 6 19 0" stroke="#385965" stroke-width="3" stroke-linecap="round"/>
    <ellipse cx="36" cy="81" rx="12" ry="7" fill="#F5B58E" opacity=".7"/><ellipse cx="98" cy="81" rx="12" ry="7" fill="#F5B58E" opacity=".7"/>
  </g>
  <g transform="translate(165 32)">
    <path d="M20 45 13 7l31 23M100 45l7-38-31 23" fill="#F3B37E" stroke="#815F4A" stroke-width="4" stroke-linejoin="round"/>
    <ellipse cx="60" cy="66" rx="54" ry="51" fill="#F7C58F" stroke="#815F4A" stroke-width="4"/>
    <path d="M27 47 15 19l27 20M93 47l12-28-27 20" fill="#F7D6BD"/>
    <circle cx="42" cy="62" r="5" fill="#4B4540"/><circle cx="78" cy="62" r="5" fill="#4B4540"/>
    <path d="M54 77h12l-6 7-6-7Z" fill="#4B4540"/><path d="M48 91c7 5 17 5 24 0" stroke="#4B4540" stroke-width="3" stroke-linecap="round"/>
    <ellipse cx="28" cy="82" rx="12" ry="7" fill="#F19D8B" opacity=".55"/><ellipse cx="92" cy="82" rx="12" ry="7" fill="#F19D8B" opacity=".55"/>
  </g>
</svg>
