<svg xmlns="http://www.w3.org/2000/svg" viewBox="0 0 230 180" fill="none">
  <path d="M12 151c0-18 15-32 33-32 7-21 26-35 49-35 27 0 49 20 53 46 6-4 14-6 22-6 22 0 40 17 42 39H12c0-4 0-8 0-12Z" fill="#E6F4F5"/>
  <ellipse cx="112" cy="91" rx="50" ry="45" fill="#FFF9EF" stroke="#6F9DA7" stroke-width="4"/>
  <ellipse cx="87" cy="42" rx="15" ry="38" transform="rotate(-13 87 42)" fill="#FFF9EF" stroke="#6F9DA7" stroke-width="4"/>
  <ellipse cx="137" cy="42" rx="15" ry="38" transform="rotate(13 137 42)" fill="#FFF9EF" stroke="#6F9DA7" stroke-width="4"/>
  <ellipse cx="87" cy="42" rx="6" ry="25" transform="rotate(-13 87 42)" fill="#F7C7B0"/>
  <ellipse cx="137" cy="42" rx="6" ry="25" transform="rotate(13 137 42)" fill="#F7C7B0"/>
  <circle cx="94" cy="87" r="4" fill="#375A64"/><circle cx="130" cy="87" r="4" fill="#375A64"/>
  <path d="M106 101c4 4 8 4 12 0M112 96v8" stroke="#375A64" stroke-width="3" stroke-linecap="round"/>
  <ellipse cx="78" cy="101" rx="12" ry="7" fill="#F6B996" opacity=".65"/><ellipse cx="146" cy="101" rx="12" ry="7" fill="#F6B996" opacity=".65"/>
  <g transform="translate(16 28)">
    <circle cx="17" cy="17" r="6" fill="#E9A36F"/>
    <circle cx="17" cy="5" r="8" fill="#F7D59C"/><circle cx="29" cy="17" r="8" fill="#C9E7DC"/>
    <circle cx="17" cy="29" r="8" fill="#D8EAF4"/><circle cx="5" cy="17" r="8" fill="#F6C5A4"/>
  </g>
</svg>
